<!-- Generated by IcoMoon.io -->
<svg version="1.1" xmlns="http://www.w3.org/2000/svg" width="32" height="32" viewBox="0 0 32 32">
<title>books-color-blue</title>
<path fill="#214478" d="M7.042 5.47h-5.279c-0.484 0-0.88 0.39-0.88 0.867v19.065c0 0.477 0.396 0.867 0.88 0.867h5.279c0.484 0 0.88-0.39 0.88-0.867v-19.065c0-0.477-0.396-0.867-0.88-0.867zM6.162 10.67h-3.519v-1.733h3.519z"></path>
<path fill="#214478" d="M15.84 5.47h-5.279c-0.484 0-0.88 0.39-0.88 0.867v19.065c0 0.477 0.396 0.867 0.88 0.867h5.279c0.484 0 0.88-0.39 0.88-0.867v-19.065c0-0.477-0.396-0.867-0.88-0.867zM14.96 10.67h-3.519v-1.733h3.519z"></path>
<path fill="#214478" d="M21.919 6.81l-4.714 2.34c-0.432 0.214-0.608 0.738-0.39 1.164l7.918 15.478c0.217 0.426 0.75 0.599 1.182 0.384l4.714-2.34c0.432-0.214 0.608-0.738 0.39-1.164l-7.918-15.478c-0.217-0.425-0.75-0.599-1.182-0.384z"></path>
</svg>
